<svg width="26" height="25" viewBox="0 0 26 25" fill="none" xmlns="http://www.w3.org/2000/svg">
<path d="M18.625 7.29166H14.4583V9.37499H18.625C20.3438 9.37499 21.75 10.7812 21.75 12.5C21.75 14.2187 20.3438 15.625 18.625 15.625H14.4583V17.7083H18.625C21.5 17.7083 23.8333 15.375 23.8333 12.5C23.8333 9.62499 21.5 7.29166 18.625 7.29166ZM12.375 15.625H8.20833C6.48958 15.625 5.08333 14.2187 5.08333 12.5C5.08333 10.7812 6.48958 9.37499 8.20833 9.37499H12.375V7.29166H8.20833C5.33333 7.29166 3 9.62499 3 12.5C3 15.375 5.33333 17.7083 8.20833 17.7083H12.375V15.625ZM9.25 11.4583H17.5833V13.5417H9.25V11.4583Z" fill="#F2F2F2"/>
</svg>
